<svg xmlns="http://www.w3.org/2000/svg" version="1" viewBox="0 0 145 143"><g fill="#fff" font-family="Varela Round" font-size="29" font-weight="400" letter-spacing="0" text-anchor="middle" word-spacing="0"><g style="line-height:125%;-inkscape-font-specification:'Varela Round, Normal';text-align:center"><path d="M144 59c-4 2-10 2-15 3l-16 1c-7 0-13 1-19-1l-14-4c-3-3-8-6-10-10-2-3-3-8-3-13 0-10 5-18 13-24 8-5 19-9 32-9h16l14 1 1 10h-2l-6-1-13-1-11 1c-9 2-14 3-20 7-5 6-6 8-6 15 0 8 0 9 5 14 6 4 4 3 13 6 4 1 12 0 16-1l9-1V37h-13v-9h30z" font-family="Verdana" style="-inkscape-font-specification:Verdana"/></g><g style="line-height:125%;-inkscape-font-specification:'Varela Round, Normal';text-align:center"><path d="M82 143l-2-16-2-16 1-18c2-6 2-10 5-14 2-4 5-8 9-10 4-3 9-4 14-4 9 0 18 5 23 13 6 8 9 19 9 33v16l-1 14h-10l1-1v-7l1-13v-10c-2-10-4-15-8-20-6-5-8-7-15-7s-8 1-14 5c-4 7-2 4-5 14-1 3 0 12 1 15l1 10h15v-14h8l1 30z" font-family="Verdana" style="-inkscape-font-specification:Verdana"/></g><g style="line-height:125%;-inkscape-font-specification:'Varela Round, Normal';text-align:center"><path d="M0 84l16-2 16-2 18 1c6 1 10 2 14 5 4 2 8 5 10 9 3 4 4 9 4 14 0 9-5 18-13 23s-19 9-33 9H16l-14-1v-10h1l7 1 13 1 10-1c10-1 15-3 20-7 5-6 7-8 7-15s0-9-5-14c-7-4-4-2-14-5H26l-10 2v14h14v9l-30 1z" font-family="Verdana" style="-inkscape-font-specification:Verdana"/></g><g style="line-height:125%;-inkscape-font-specification:'Varela Round, Normal';text-align:center"><path d="M60 0c2 5 1 10 3 16l1 16c0 6 1 13-1 18l-4 14c-3 4-6 8-10 10-3 3-8 4-13 4-10 0-18-5-24-13-5-8-9-19-9-33V16L4 2h10v1l-1 7-1 13 1 10c1 10 3 15 7 20 6 5 8 7 15 7 8 0 9 0 14-5 4-7 3-4 5-14V26l-1-10H38v14h-9V0z" font-family="Verdana" style="-inkscape-font-specification:Verdana"/></g></g></svg>